<svg xmlns="http://www.w3.org/2000/svg" width="29" height="28" fill="none" viewBox="0 0 29 28"><path fill="url(#a)" d="M9.34 14a4.669 4.669 0 0 1 9.339 0 4.669 4.669 0 0 1-9.34 0m-2.524 0a7.19 7.19 0 0 0 7.193 7.189A7.19 7.19 0 0 0 21.202 14a7.19 7.19 0 0 0-7.193-7.189A7.19 7.19 0 0 0 6.816 14m12.99-7.474a1.68 1.68 0 0 0 2.869 1.19 1.68 1.68 0 0 0-1.188-2.87 1.68 1.68 0 0 0-1.681 1.68M8.348 25.396c-1.366-.062-2.108-.29-2.601-.482a4.4 4.4 0 0 1-1.611-1.047 4.3 4.3 0 0 1-1.048-1.61c-.193-.492-.42-1.234-.482-2.6-.068-1.475-.082-1.918-.082-5.657s.015-4.18.082-5.658c.062-1.365.291-2.105.482-2.6a4.35 4.35 0 0 1 1.048-1.61c.49-.49.956-.794 1.61-1.047.494-.192 1.236-.42 2.602-.482 1.477-.067 1.92-.081 5.66-.081 3.739 0 4.183.015 5.66.081 1.366.063 2.108.292 2.602.482a4.34 4.34 0 0 1 1.611 1.047c.491.49.794.957 1.048 1.61.193.493.42 1.235.482 2.6.068 1.477.082 1.92.082 5.658s-.014 4.18-.082 5.658c-.062 1.365-.29 2.107-.482 2.6a4.34 4.34 0 0 1-1.048 1.609c-.49.49-.957.793-1.61 1.047-.494.192-1.236.42-2.602.482-1.477.067-1.92.081-5.661.081s-4.184-.014-5.66-.081M8.233.085c-1.491.068-2.51.304-3.4.65A6.9 6.9 0 0 0 2.352 2.35 6.8 6.8 0 0 0 .736 4.83c-.347.89-.583 1.908-.65 3.398C.015 9.721 0 10.198 0 14s.016 4.28.085 5.772c.068 1.49.304 2.508.65 3.398.358.92.837 1.702 1.617 2.48a6.9 6.9 0 0 0 2.481 1.615c.892.346 1.909.582 3.4.65 1.495.068 1.971.085 5.776.085s4.281-.016 5.775-.085c1.491-.068 2.51-.304 3.4-.65a6.9 6.9 0 0 0 2.482-1.615 6.9 6.9 0 0 0 1.616-2.48c.346-.89.583-1.908.65-3.398.068-1.494.084-1.97.084-5.772S28 9.72 27.932 8.228c-.068-1.49-.304-2.509-.65-3.398a6.9 6.9 0 0 0-1.616-2.48 6.9 6.9 0 0 0-2.48-1.615c-.892-.346-1.91-.583-3.4-.65C18.29.017 17.813 0 14.01 0S9.728.016 8.233.085"/><path fill="url(#b)" d="M9.34 14a4.669 4.669 0 0 1 9.339 0 4.669 4.669 0 0 1-9.34 0m-2.524 0a7.19 7.19 0 0 0 7.193 7.189A7.19 7.19 0 0 0 21.202 14a7.19 7.19 0 0 0-7.193-7.189A7.19 7.19 0 0 0 6.816 14m12.99-7.474a1.68 1.68 0 0 0 2.869 1.19 1.68 1.68 0 0 0-1.188-2.87 1.68 1.68 0 0 0-1.681 1.68M8.348 25.396c-1.366-.062-2.108-.29-2.601-.482a4.4 4.4 0 0 1-1.611-1.047 4.3 4.3 0 0 1-1.048-1.61c-.193-.492-.42-1.234-.482-2.6-.068-1.475-.082-1.918-.082-5.657s.015-4.18.082-5.658c.062-1.365.291-2.105.482-2.6a4.35 4.35 0 0 1 1.048-1.61c.49-.49.956-.794 1.61-1.047.494-.192 1.236-.42 2.602-.482 1.477-.067 1.92-.081 5.66-.081 3.739 0 4.183.015 5.66.081 1.366.063 2.108.292 2.602.482a4.34 4.34 0 0 1 1.611 1.047c.491.49.794.957 1.048 1.61.193.493.42 1.235.482 2.6.068 1.477.082 1.92.082 5.658s-.014 4.18-.082 5.658c-.062 1.365-.29 2.107-.482 2.6a4.34 4.34 0 0 1-1.048 1.609c-.49.49-.957.793-1.61 1.047-.494.192-1.236.42-2.602.482-1.477.067-1.92.081-5.661.081s-4.184-.014-5.66-.081M8.233.085c-1.491.068-2.51.304-3.4.65A6.9 6.9 0 0 0 2.352 2.35 6.8 6.8 0 0 0 .736 4.83c-.347.89-.583 1.908-.65 3.398C.015 9.721 0 10.198 0 14s.016 4.28.085 5.772c.068 1.49.304 2.508.65 3.398.358.92.837 1.702 1.617 2.48a6.9 6.9 0 0 0 2.481 1.615c.892.346 1.909.582 3.4.65 1.495.068 1.971.085 5.776.085s4.281-.016 5.775-.085c1.491-.068 2.51-.304 3.4-.65a6.9 6.9 0 0 0 2.482-1.615 6.9 6.9 0 0 0 1.616-2.48c.346-.89.583-1.908.65-3.398.068-1.494.084-1.97.084-5.772S28 9.72 27.932 8.228c-.068-1.49-.304-2.509-.65-3.398a6.9 6.9 0 0 0-1.616-2.48 6.9 6.9 0 0 0-2.48-1.615c-.892-.346-1.91-.583-3.4-.65C18.29.017 17.813 0 14.01 0S9.728.016 8.233.085"/><defs><radialGradient id="a" cx="0" cy="0" r="1" gradientTransform="matrix(36.5736 0 0 36.5516 3.722 28.132)" gradientUnits="userSpaceOnUse"><stop offset=".09" stop-color="#fa8f21"/><stop offset=".78" stop-color="#d82d7e"/></radialGradient><radialGradient id="b" cx="0" cy="0" r="1" gradientTransform="matrix(28.825 0 0 28.8077 16.991 29.387)" gradientUnits="userSpaceOnUse"><stop offset=".64" stop-color="#8c3aaa" stop-opacity="0"/><stop offset="1" stop-color="#8c3aaa"/></radialGradient></defs></svg>