<svg xmlns="http://www.w3.org/2000/svg" width="32" height="25" fill="none" viewBox="0 0 32 25"><path fill="#5865f2" d="M27.13 2.072c3.615 5.346 5.4 11.377 4.732 18.32a.1.1 0 0 1-.042.074 26.4 26.4 0 0 1-8.003 4.063.1.1 0 0 1-.112-.038 21.5 21.5 0 0 1-1.634-2.674.103.103 0 0 1 .055-.143c.871-.33 1.7-.726 2.497-1.195a.104.104 0 0 0 .01-.171 13 13 0 0 1-.498-.392.1.1 0 0 0-.104-.013c-5.176 2.405-10.845 2.405-16.082 0a.1.1 0 0 0-.104.014q-.242.2-.496.39a.103.103 0 0 0 .01.172 17.4 17.4 0 0 0 2.497 1.197.102.102 0 0 1 .055.141c-.47.938-1.02 1.83-1.634 2.675a.1.1 0 0 1-.113.037 26.5 26.5 0 0 1-7.99-4.063.1.1 0 0 1-.042-.075C-.425 14.385.712 8.305 4.86 2.07a.1.1 0 0 1 .043-.037A26.2 26.2 0 0 1 11.416.002a.1.1 0 0 1 .105.05c.282.503.605 1.148.823 1.675 2.41-.37 4.856-.37 7.316 0 .218-.516.53-1.172.811-1.675a.1.1 0 0 1 .105-.05 26.3 26.3 0 0 1 6.513 2.032.08.08 0 0 1 .042.038M13.57 13.49c.024-1.775-1.262-3.244-2.877-3.244-1.602 0-2.876 1.456-2.876 3.244s1.3 3.244 2.876 3.244c1.602 0 2.876-1.456 2.876-3.244m10.632 0c.025-1.775-1.261-3.244-2.876-3.244-1.602 0-2.876 1.456-2.876 3.244s1.3 3.244 2.876 3.244c1.615 0 2.876-1.456 2.876-3.244"/></svg>