<svg xmlns="http://www.w3.org/2000/svg" width="154" height="48" fill="none" viewBox="0 0 154 48"><path fill="#333" d="m61.71 25.662-2.678-7.006c-.11-.287-.527-.287-.636 0l-2.677 7.007a.32.32 0 0 0 .04.302.34.34 0 0 0 .279.142h5.353a.35.35 0 0 0 .279-.142.33.33 0 0 0 .039-.302m1.236 3.939h-8.463q-.107 0-.194.059a.33.33 0 0 0-.124.155l-1.666 4.36a.33.33 0 0 1-.125.156.35.35 0 0 1-.193.059h-3.668a.35.35 0 0 1-.281-.145.32.32 0 0 1-.034-.307l8.445-20.426a.33.33 0 0 1 .125-.15.35.35 0 0 1 .19-.057h3.512a.34.34 0 0 1 .315.207l8.445 20.426a.32.32 0 0 1-.034.307.34.34 0 0 1-.28.145h-3.668a.35.35 0 0 1-.194-.06.33.33 0 0 1-.124-.155l-1.667-4.36a.33.33 0 0 0-.124-.155.35.35 0 0 0-.194-.06m8.003-9.127h3.137c.09 0 .176.035.24.096.064.062.1.146.1.233V34.06a.32.32 0 0 1-.1.233.34.34 0 0 1-.24.097H70.95a.34.34 0 0 1-.24-.097.32.32 0 0 1-.1-.233V20.803c0-.087.036-.171.1-.233a.34.34 0 0 1 .24-.096m14.918 3.225a.33.33 0 0 1-.099.233.35.35 0 0 1-.24.096h-.095q-2.327 0-3.413 1.084t-1.085 3.585v5.363a.33.33 0 0 1-.1.233.34.34 0 0 1-.24.097H77.49a.35.35 0 0 1-.24-.097.32.32 0 0 1-.1-.233V20.803c0-.087.036-.171.1-.233a.35.35 0 0 1 .24-.096h3.075c.09 0 .177.034.24.096.064.062.1.146.1.233v2.622h.062q.558-1.626 1.768-2.5 1.21-.873 2.978-.873h.155zm8.579-.123a.35.35 0 0 0-.24.097.33.33 0 0 0-.1.233v5.514q0 .843.342 1.204.34.362 1.178.362h.313c.09 0 .176.035.24.096a.33.33 0 0 1 .099.233v2.775a.33.33 0 0 1-.1.233.34.34 0 0 1-.24.097h-1.335q-2.079 0-3.196-1.04-1.117-1.038-1.117-3.087v-6.387a.33.33 0 0 0-.1-.233.34.34 0 0 0-.239-.097h-1.958a.35.35 0 0 1-.24-.096.33.33 0 0 1-.1-.233v-2.444c0-.087.036-.171.1-.233a.34.34 0 0 1 .24-.096h1.958c.09 0 .177-.035.24-.097a.32.32 0 0 0 .1-.233v-4.913c0-.088.035-.171.099-.233a.35.35 0 0 1 .24-.097h3.137c.09 0 .176.035.24.097s.1.145.1.233v4.913c0 .088.035.171.099.233.063.062.15.097.24.097h2.268c.09 0 .177.034.24.096.064.062.1.146.1.233v2.444a.32.32 0 0 1-.1.233.35.35 0 0 1-.24.096zm14.366 6.687q1.07-1.085 1.07-2.831 0-1.747-1.07-2.832t-2.808-1.084-2.807 1.084q-1.071 1.084-1.071 2.832 0 1.746 1.071 2.831t2.807 1.084q1.737 0 2.808-1.084m-7.244 3.705q-1.583-.873-2.497-2.545-.915-1.672-.916-3.991 0-2.32.916-3.991.915-1.672 2.497-2.546t3.475-.873q1.674 0 2.87.632a4.93 4.93 0 0 1 1.907 1.778h.062v-1.629c0-.087.036-.171.1-.233a.34.34 0 0 1 .239-.096h3.107c.09 0 .176.034.24.096a.33.33 0 0 1 .099.233V34.06a.33.33 0 0 1-.099.233.35.35 0 0 1-.24.096h-3.107a.34.34 0 0 1-.239-.096.32.32 0 0 1-.1-.233v-1.628h-.062a4.93 4.93 0 0 1-1.908 1.777q-1.194.632-2.869.632-1.893 0-3.475-.873m25.018-3.705q1.07-1.085 1.07-2.831 0-1.747-1.07-2.832t-2.807-1.084q-1.738 0-2.808 1.084t-1.07 2.832 1.07 2.831 2.808 1.084 2.807-1.084m-4.715 3.946a4.9 4.9 0 0 1-1.908-1.777h-.062v1.628a.32.32 0 0 1-.1.233.34.34 0 0 1-.24.096h-3.137a.35.35 0 0 1-.24-.096.33.33 0 0 1-.099-.233V13.634c0-.087.036-.171.099-.233a.35.35 0 0 1 .24-.096h3.137c.09 0 .177.034.24.096.064.062.1.146.1.233v8.797h.062a4.9 4.9 0 0 1 1.908-1.777q1.194-.632 2.87-.632 1.891 0 3.474.873 1.582.874 2.497 2.545.916 1.673.916 3.992t-.915 3.99q-.916 1.673-2.498 2.546t-3.474.874q-1.676 0-2.87-.633m15.043.18h-3.138a.34.34 0 0 1-.239-.096.32.32 0 0 1-.1-.233V13.635c0-.088.036-.171.1-.233a.34.34 0 0 1 .239-.097h3.138c.09 0 .176.035.24.097a.33.33 0 0 1 .099.233V34.06a.33.33 0 0 1-.099.233.35.35 0 0 1-.24.097m7.4-10.692q-.78.591-1.053 1.707c-.05.205.115.401.332.401h5.971c.207 0 .37-.18.336-.378q-.179-1.056-.932-1.685-.884-.738-2.311-.738t-2.343.693m7.648-1.732q1.83 1.943 1.83 5.497v.393a.33.33 0 0 1-.099.233.35.35 0 0 1-.24.097h-9.975a.35.35 0 0 0-.261.118.33.33 0 0 0-.075.27q.24 1.32 1.203 2.097 1.101.889 2.777.888 2.163 0 4.004-1.639a.343.343 0 0 1 .503.057l1.526 2.126a.32.32 0 0 1 .059.227.33.33 0 0 1-.111.208 11.3 11.3 0 0 1-2.475 1.597q-1.49.707-3.506.708-2.327 0-4.064-.92a6.6 6.6 0 0 1-2.699-2.59q-.962-1.671-.962-3.87t.931-3.886a6.6 6.6 0 0 1 2.606-2.62q1.675-.933 3.909-.934 3.287 0 5.119 1.943m-77.127-6.392c0 1.242-1.037 2.25-2.317 2.25s-2.318-1.008-2.318-2.25c0-1.243 1.038-2.25 2.318-2.25s2.317 1.007 2.317 2.25"/><path fill="#fcb400" d="M17.867 7.364 2.95 13.358a.96.96 0 0 0 .014 1.798l14.98 5.768a5.7 5.7 0 0 0 4.098 0l14.98-5.768a.96.96 0 0 0 .014-1.798L22.118 7.364a5.7 5.7 0 0 0-4.251 0"/><path fill="#18bfff" d="M21.321 24.073v14.409c0 .685.712 1.154 1.368.902l16.693-6.291a1 1 0 0 0 .458-.357.95.95 0 0 0 .172-.545V17.783c0-.686-.711-1.155-1.367-.902l-16.693 6.29a1 1 0 0 0-.458.357.95.95 0 0 0-.173.545"/><path fill="#f82b60" d="M17.423 24.816 12.47 27.14l-.503.236L1.51 32.24c-.664.31-1.51-.16-1.51-.874V17.843c0-.259.137-.482.32-.65q.113-.11.253-.185c.25-.145.606-.184.91-.068l15.857 6.1c.806.311.87 1.408.083 1.777"/><path fill="#000" fill-opacity=".25" d="m17.423 24.816-4.954 2.323-12.15-9.946q.113-.11.254-.185c.25-.145.606-.184.909-.068l15.858 6.1c.806.311.869 1.408.083 1.777"/></svg>