<svg xmlns="http://www.w3.org/2000/svg" width="25" height="28" fill="none" viewBox="0 0 25 28"><path fill="#ee1d52" fill-rule="evenodd" d="M18.359 10.118a11 11 0 0 0 6.418 2.035V7.596a6.2 6.2 0 0 1-1.344-.144v3.63a11 11 0 0 1-6.426-2.058v9.373a8.521 8.521 0 0 1-13.232 7.072 8.523 8.523 0 0 0 14.584-5.956zm1.663-4.649a6.37 6.37 0 0 1-1.663-3.752v-.593h-1.276a6.44 6.44 0 0 0 2.94 4.345M6.73 21.86a3.889 3.889 0 0 1 3.122-6.25c.402 0 .801.06 1.185.182v-4.71q-.673-.088-1.352-.076v3.662a3.896 3.896 0 0 0-2.932 7.192z" clip-rule="evenodd"/><path fill="#000" fill-rule="evenodd" d="M17.006 8.994a11 11 0 0 0 6.426 2.058v-3.63a6.4 6.4 0 0 1-3.41-1.953 6.44 6.44 0 0 1-2.94-4.345h-3.357v18.39a3.897 3.897 0 0 1-6.996 2.346 3.896 3.896 0 0 1 2.932-7.192v-3.662a8.515 8.515 0 0 0-5.886 14.462 8.522 8.522 0 0 0 13.254-7.071z" clip-rule="evenodd"/><path fill="#69c9d0" fill-rule="evenodd" d="M23.433 7.42v-.979a6.37 6.37 0 0 1-3.411-.972 6.36 6.36 0 0 0 3.41 1.952m-6.35-6.296c0-.175-.054-.357-.076-.532V0h-4.634v18.397a3.89 3.89 0 0 1-3.896 3.873 3.84 3.84 0 0 1-1.747-.41 3.896 3.896 0 0 0 6.995-2.347V1.124zM9.662 11V9.958a8.515 8.515 0 0 0-5.887 15.51 8.515 8.515 0 0 1 5.91-14.432z" clip-rule="evenodd"/></svg>