<svg xmlns="http://www.w3.org/2000/svg" width="28" height="28" fill="none" viewBox="0 0 28 28"><path fill="#ff4500" d="M14 28c7.732 0 14-6.268 14-14S21.732 0 14 0 0 6.268 0 14s6.268 14 14 14"/><path fill="#fff" d="M23.338 14a2.05 2.05 0 0 1-.662 1.537q-.213.197-.472.324a4 4 0 0 1 .009.462l-.009.154c0 3.136-3.654 5.685-8.162 5.685S5.88 19.613 5.88 16.478a4 4 0 0 1-.009-.463q.003-.076.01-.154a2.05 2.05 0 0 1-1.166-2.182 2.044 2.044 0 0 1 3.42-1.164 10 10 0 0 1 2.603-1.26 10 10 0 0 1 2.856-.462l1.036-4.858a.43.43 0 0 1 .518-.336l3.43.686a1.4 1.4 0 1 1-.182.854L15.4 6.51l-.91 4.368a9.9 9.9 0 0 1 4.15 1.004q.646.315 1.24.719a2.042 2.042 0 0 1 3.09.3c.226.324.354.705.368 1.1M9.445 15.935a1.402 1.402 0 0 0 2.587 0 1.4 1.4 0 1 0-2.587 0m8.018 3.361a.378.378 0 0 0-.259-.648.46.46 0 0 0-.278.098 4.6 4.6 0 0 1-2.15.83 4.6 4.6 0 0 1-.776.023 4.58 4.58 0 0 1-2.912-.881.378.378 0 0 0-.532.532 5.38 5.38 0 0 0 3.458 1.078q.462.018.922-.041a5.4 5.4 0 0 0 2.536-1.037zm-.257-2.384a1.4 1.4 0 0 0 1.323-.9c.068-.178.099-.367.091-.556a1.4 1.4 0 1 0-1.4 1.4z"/></svg>