<svg xmlns="http://www.w3.org/2000/svg" width="28" height="28" fill="none" viewBox="0 0 28 28"><g clip-path="url(#a)"><path fill="#d97757" d="M5.494 18.614 11 15.526l.094-.268-.094-.15h-.267l-.921-.056-3.148-.085-2.729-.113-2.644-.143-.666-.14L0 13.747l.064-.41.56-.375.8.07 1.774.12 2.657.184 1.928.113 2.857.298h.454l.064-.183-.156-.115-.12-.113-2.752-1.862-2.977-1.97-1.559-1.133-.844-.573-.425-.539-.184-1.176.765-.842 1.028.07.262.07 1.042.801 2.226 1.722 2.906 2.139.426.354.17-.12.022-.085-.192-.32-1.58-2.853-1.688-2.905-.751-1.204-.198-.722a3.5 3.5 0 0 1-.122-.851L7.33.156 7.812 0l1.162.156.49.425.723 1.65 1.17 2.6 1.813 3.535.532 1.048.284.97.106.298h.184v-.17l.15-1.99.276-2.445.268-3.144.094-.887.438-1.061.872-.574.681.326.56.8-.078.517-.334 2.16-.652 3.387-.424 2.265h.247l.284-.282 1.149-1.524 1.927-2.408.852-.956.991-1.055.638-.503h1.206l.886 1.317-.396 1.36-1.242 1.572-1.027 1.333-1.475 1.983-.922 1.587.085.128.22-.023 3.332-.707 1.8-.327 2.148-.368.972.453.106.46-.383.942-2.297.567-2.694.54-4.012.948-.05.035.058.071 1.807.17.773.042h1.892l3.523.263.922.609.553.744-.092.566-1.418.723-1.913-.454-4.467-1.061-1.531-.384h-.212v.128l1.275 1.246 2.34 2.112 2.927 2.718.149.675-.376.53-.397-.057-2.572-1.933-.993-.871-2.247-1.89h-.15v.198l.518.757 2.736 4.108.143 1.26-.199.412-.709.248-.78-.142-1.602-2.246-1.651-2.528-1.334-2.267-.163.094-.786 8.462-.369.432-.85.327-.709-.538-.375-.872.375-1.721.454-2.245.368-1.785.333-2.217.199-.737-.014-.05-.164.022-1.673 2.295-2.543 3.435-2.014 2.153-.483.191-.836-.431.078-.773.468-.687 2.786-3.542 1.68-2.196 1.085-1.267-.007-.184h-.064l-7.4 4.802-1.319.17-.568-.532.071-.87.27-.283L5.5 18.607z"/></g><defs><clipPath id="a"><path fill="#fff" d="M0 0h28v28H0z"/></clipPath></defs></svg>